<svg xmlns="http://www.w3.org/2000/svg" viewBox="0 0 200 200">
  <rect width="200" height="200" rx="16" fill="#2C3E50"/>
  <circle cx="100" cy="100" r="85" fill="#8B9DAF" opacity="0.2"/>
  <circle cx="100" cy="100" r="70" fill="none" stroke="#8B9DAF" stroke-width="3"/>
  <!-- Direwolf silhouette -->
  <g transform="translate(100,105) scale(0.55)" fill="#C0CDD8">
    <ellipse cx="0" cy="10" rx="55" ry="30"/>
    <ellipse cx="-50" cy="-15" rx="28" ry="22"/>
    <polygon points="-75,-25 -90,-18 -75,-10"/>
    <polygon points="-55,-35 -45,-55 -35,-30"/>
    <polygon points="-40,-35 -30,-55 -20,-30"/>
    <path d="M50,0 Q75,-30 85,-50 Q80,-35 60,5"/>
    <rect x="-30" y="30" width="10" height="30" rx="3"/>
    <rect x="-10" y="30" width="10" height="30" rx="3"/>
    <rect x="15" y="30" width="10" height="30" rx="3"/>
    <rect x="35" y="30" width="10" height="28" rx="3"/>
    <circle cx="-55" cy="-18" r="3" fill="#2C3E50"/>
  </g>
  <text x="100" y="185" text-anchor="middle" font-family="serif" font-size="14" fill="#8B9DAF" font-weight="bold">STARK</text>
</svg>
